<svg width="269" height="24" viewBox="0 0 269 24" fill="none" xmlns="http://www.w3.org/2000/svg">
<path d="M22.34 9.33L20.34 8.33C19.97 8.15 19.51 8.29 19.33 8.66C19.14 9.04 19.29 9.49 19.66 9.67L21.25 10.46V15.25L17.5 15.26V5C17.5 3 16.16 2 14.5 2H6.5C4.84 2 3.5 3 3.5 5V21.25H2C1.59 21.25 1.25 21.59 1.25 22C1.25 22.41 1.59 22.75 2 22.75H19C19.41 22.75 19.75 22.41 19.75 22C19.75 21.59 19.41 21.25 19 21.25H17.5V16.76L22 16.75C22.42 16.75 22.75 16.41 22.75 16V10C22.75 9.72 22.59 9.46 22.34 9.33ZM6 6.89C6 5.5 6.85 5 7.89 5H13.12C14.15 5 15 5.5 15 6.89V8.12C15 9.5 14.15 10 13.11 10H7.89C6.85 10 6 9.5 6 8.11V6.89ZM6.5 12.25H9.5C9.91 12.25 10.25 12.59 10.25 13C10.25 13.41 9.91 13.75 9.5 13.75H6.5C6.09 13.75 5.75 13.41 5.75 13C5.75 12.59 6.09 12.25 6.5 12.25Z" fill="#90A3BF"/>
<path d="M33.078 18L37.656 8.76H32.546V7.57H39.098V8.76L34.562 18H33.078ZM44.7519 18.168C43.9213 18.168 43.1933 17.944 42.5679 17.496C41.9519 17.0387 41.4713 16.4087 41.1259 15.606C40.7806 14.794 40.6079 13.8513 40.6079 12.778C40.6079 11.7047 40.7806 10.7667 41.1259 9.964C41.4713 9.152 41.9519 8.522 42.5679 8.074C43.1839 7.626 43.9073 7.402 44.7379 7.402C45.5686 7.402 46.2919 7.626 46.9079 8.074C47.5239 8.522 48.0046 9.152 48.3499 9.964C48.7046 10.7667 48.8819 11.7047 48.8819 12.778C48.8819 13.8513 48.7093 14.794 48.3639 15.606C48.0186 16.418 47.5333 17.048 46.9079 17.496C46.2919 17.944 45.5733 18.168 44.7519 18.168ZM44.7519 16.894C45.3119 16.894 45.7973 16.726 46.2079 16.39C46.6186 16.0447 46.9359 15.564 47.1599 14.948C47.3933 14.332 47.5099 13.6087 47.5099 12.778C47.5099 11.9473 47.3933 11.224 47.1599 10.608C46.9359 9.992 46.6139 9.516 46.1939 9.18C45.7833 8.844 45.2979 8.676 44.7379 8.676C44.1779 8.676 43.6926 8.844 43.2819 9.18C42.8713 9.516 42.5493 9.992 42.3159 10.608C42.0919 11.224 41.9799 11.9473 41.9799 12.778C41.9799 13.5993 42.0919 14.318 42.3159 14.934C42.5493 15.55 42.8713 16.0307 43.2819 16.376C43.7019 16.7213 44.1919 16.894 44.7519 16.894ZM50.9628 18V7.57H52.3348V16.74H56.9128V18H50.9628Z" fill="#90A3BF"/>
<path d="M89 2C83.48 2 79 6.48 79 12C79 17.52 83.48 22 89 22C94.52 22 99 17.52 99 12C99 6.48 94.53 2 89 2Z" fill="#90A3BF"/>
<rect x="81" y="4" width="16" height="16" rx="8" fill="white"/>
<path d="M89 6C85.688 6 83 8.688 83 12C83 15.312 85.688 18 89 18C92.312 18 95 15.312 95 12C95 8.688 92.318 6 89 6Z" fill="#90A3BF"/>
<rect x="85" y="8" width="8" height="8" rx="4" fill="white"/>
<rect x="88" y="17" width="2" height="4" fill="#90A3BF"/>
<rect x="94" y="11" width="4" height="2" fill="#90A3BF"/>
<rect x="80" y="11" width="4" height="2" fill="#90A3BF"/>
<path d="M110.162 18V7.57H111.422L115.328 13.128H114.684L118.562 7.57H119.822V18H118.436V9.306L118.926 9.46L115.048 14.92H114.936L111.1 9.46L111.534 9.306V18H110.162ZM124.197 18.168C123.702 18.168 123.263 18.0793 122.881 17.902C122.507 17.7153 122.213 17.4633 121.999 17.146C121.784 16.8193 121.677 16.446 121.677 16.026C121.677 15.6247 121.761 15.2653 121.929 14.948C122.106 14.6213 122.377 14.346 122.741 14.122C123.114 13.898 123.581 13.7393 124.141 13.646L126.941 13.184V14.276L124.435 14.696C123.949 14.78 123.595 14.934 123.371 15.158C123.156 15.382 123.049 15.6573 123.049 15.984C123.049 16.292 123.17 16.5487 123.413 16.754C123.665 16.9593 123.977 17.062 124.351 17.062C124.827 17.062 125.237 16.964 125.583 16.768C125.937 16.5627 126.213 16.2873 126.409 15.942C126.614 15.5967 126.717 15.214 126.717 14.794V12.876C126.717 12.4653 126.563 12.134 126.255 11.882C125.956 11.6207 125.559 11.49 125.065 11.49C124.635 11.49 124.253 11.602 123.917 11.826C123.59 12.0407 123.347 12.33 123.189 12.694L122.055 12.106C122.195 11.7607 122.419 11.4527 122.727 11.182C123.035 10.902 123.394 10.6827 123.805 10.524C124.215 10.3653 124.645 10.286 125.093 10.286C125.671 10.286 126.18 10.398 126.619 10.622C127.057 10.8367 127.398 11.14 127.641 11.532C127.893 11.9147 128.019 12.3627 128.019 12.876V18H126.745V16.572L126.983 16.656C126.824 16.9547 126.609 17.216 126.339 17.44C126.068 17.664 125.751 17.8413 125.387 17.972C125.023 18.1027 124.626 18.168 124.197 18.168ZM130.037 18V10.454H131.311V11.924L131.101 11.798C131.288 11.322 131.587 10.9533 131.997 10.692C132.417 10.4213 132.907 10.286 133.467 10.286C134.009 10.286 134.489 10.4073 134.909 10.65C135.339 10.8927 135.675 11.2287 135.917 11.658C136.169 12.0873 136.295 12.5727 136.295 13.114V18H134.979V13.534C134.979 13.114 134.905 12.7593 134.755 12.47C134.606 12.1807 134.391 11.9567 134.111 11.798C133.841 11.63 133.528 11.546 133.173 11.546C132.819 11.546 132.501 11.63 132.221 11.798C131.951 11.9567 131.736 12.1853 131.577 12.484C131.419 12.7733 131.339 13.1233 131.339 13.534V18H130.037ZM140.832 18.168C140.291 18.168 139.801 18.042 139.362 17.79C138.933 17.538 138.597 17.188 138.354 16.74C138.121 16.2827 138.004 15.76 138.004 15.172V10.454H139.306V15.032C139.306 15.4053 139.381 15.732 139.53 16.012C139.689 16.292 139.904 16.5113 140.174 16.67C140.454 16.8287 140.772 16.908 141.126 16.908C141.481 16.908 141.794 16.8287 142.064 16.67C142.344 16.5113 142.559 16.2827 142.708 15.984C142.867 15.6853 142.946 15.3307 142.946 14.92V10.454H144.262V18H142.988V16.53L143.198 16.656C143.021 17.132 142.718 17.5053 142.288 17.776C141.868 18.0373 141.383 18.168 140.832 18.168ZM148.491 18.168C147.997 18.168 147.558 18.0793 147.175 17.902C146.802 17.7153 146.508 17.4633 146.293 17.146C146.079 16.8193 145.971 16.446 145.971 16.026C145.971 15.6247 146.055 15.2653 146.223 14.948C146.401 14.6213 146.671 14.346 147.035 14.122C147.409 13.898 147.875 13.7393 148.435 13.646L151.235 13.184V14.276L148.729 14.696C148.244 14.78 147.889 14.934 147.665 15.158C147.451 15.382 147.343 15.6573 147.343 15.984C147.343 16.292 147.465 16.5487 147.707 16.754C147.959 16.9593 148.272 17.062 148.645 17.062C149.121 17.062 149.532 16.964 149.877 16.768C150.232 16.5627 150.507 16.2873 150.703 15.942C150.909 15.5967 151.011 15.214 151.011 14.794V12.876C151.011 12.4653 150.857 12.134 150.549 11.882C150.251 11.6207 149.854 11.49 149.359 11.49C148.93 11.49 148.547 11.602 148.211 11.826C147.885 12.0407 147.642 12.33 147.483 12.694L146.349 12.106C146.489 11.7607 146.713 11.4527 147.021 11.182C147.329 10.902 147.689 10.6827 148.099 10.524C148.51 10.3653 148.939 10.286 149.387 10.286C149.966 10.286 150.475 10.398 150.913 10.622C151.352 10.8367 151.693 11.14 151.935 11.532C152.187 11.9147 152.313 12.3627 152.313 12.876V18H151.039V16.572L151.277 16.656C151.119 16.9547 150.904 17.216 150.633 17.44C150.363 17.664 150.045 17.8413 149.681 17.972C149.317 18.1027 148.921 18.168 148.491 18.168ZM154.332 18V7.402H155.634V18H154.332Z" fill="#90A3BF"/>
<path d="M187 2C184.38 2 182.25 4.13 182.25 6.75C182.25 9.32 184.26 11.4 186.88 11.49C186.96 11.48 187.04 11.48 187.1 11.49C187.12 11.49 187.13 11.49 187.15 11.49C187.16 11.49 187.16 11.49 187.17 11.49C189.73 11.4 191.74 9.32 191.75 6.75C191.75 4.13 189.62 2 187 2Z" fill="#90A3BF"/>
<path d="M192.08 14.1499C189.29 12.2899 184.74 12.2899 181.93 14.1499C180.66 14.9999 179.96 16.1499 179.96 17.3799C179.96 18.6099 180.66 19.7499 181.92 20.5899C183.32 21.5299 185.16 21.9999 187 21.9999C188.84 21.9999 190.68 21.5299 192.08 20.5899C193.34 19.7399 194.04 18.5999 194.04 17.3599C194.03 16.1299 193.34 14.9899 192.08 14.1499Z" fill="#90A3BF"/>
<path d="M197.99 7.3401C198.15 9.2801 196.77 10.9801 194.86 11.2101C194.85 11.2101 194.85 11.2101 194.84 11.2101H194.81C194.75 11.2101 194.69 11.2101 194.64 11.2301C193.67 11.2801 192.78 10.9701 192.11 10.4001C193.14 9.4801 193.73 8.1001 193.61 6.6001C193.54 5.7901 193.26 5.0501 192.84 4.4201C193.22 4.2301 193.66 4.1101 194.11 4.0701C196.07 3.9001 197.82 5.3601 197.99 7.3401Z" fill="#90A3BF"/>
<path d="M199.99 16.5904C199.91 17.5604 199.29 18.4004 198.25 18.9704C197.25 19.5204 195.99 19.7804 194.74 19.7504C195.46 19.1004 195.88 18.2904 195.96 17.4304C196.06 16.1904 195.47 15.0004 194.29 14.0504C193.62 13.5204 192.84 13.1004 191.99 12.7904C194.2 12.1504 196.98 12.5804 198.69 13.9604C199.61 14.7004 200.08 15.6304 199.99 16.5904Z" fill="#90A3BF"/>
<path d="M214.726 18V15.592H209.602V14.458L214.698 7.57H216.014V14.458H217.372V15.592H216.014V18H214.726ZM210.638 14.948L210.442 14.458H214.726V8.718L215.132 8.83L210.638 14.948ZM221.51 18V7.57H225.192C225.882 7.57 226.489 7.70067 227.012 7.962C227.534 8.22333 227.94 8.59667 228.23 9.082C228.528 9.56733 228.678 10.1367 228.678 10.79C228.678 11.4433 228.528 12.0127 228.23 12.498C227.94 12.974 227.534 13.3473 227.012 13.618C226.498 13.8793 225.892 14.01 225.192 14.01H222.882V18H221.51ZM222.882 12.75H225.234C225.654 12.75 226.018 12.6707 226.326 12.512C226.634 12.3533 226.872 12.1247 227.04 11.826C227.208 11.5273 227.292 11.182 227.292 10.79C227.292 10.3887 227.208 10.0433 227.04 9.754C226.872 9.45533 226.634 9.22667 226.326 9.068C226.018 8.90933 225.654 8.83 225.234 8.83H222.882V12.75ZM233.578 18.168C232.85 18.168 232.201 17.9953 231.632 17.65C231.062 17.3047 230.614 16.8333 230.288 16.236C229.961 15.6293 229.798 14.9527 229.798 14.206C229.798 13.45 229.956 12.778 230.274 12.19C230.6 11.602 231.039 11.14 231.59 10.804C232.15 10.4587 232.775 10.286 233.466 10.286C234.026 10.286 234.52 10.3887 234.95 10.594C235.388 10.79 235.757 11.0607 236.056 11.406C236.364 11.742 236.597 12.1293 236.756 12.568C236.924 12.9973 237.008 13.4453 237.008 13.912C237.008 14.0147 236.998 14.1313 236.98 14.262C236.97 14.3833 236.956 14.5 236.938 14.612H230.75V13.492H236.182L235.566 13.996C235.65 13.5107 235.603 13.0767 235.426 12.694C235.248 12.3113 234.987 12.008 234.642 11.784C234.296 11.56 233.904 11.448 233.466 11.448C233.027 11.448 232.626 11.56 232.262 11.784C231.898 12.008 231.613 12.33 231.408 12.75C231.212 13.1607 231.132 13.6507 231.17 14.22C231.132 14.7707 231.216 15.256 231.422 15.676C231.636 16.0867 231.935 16.4087 232.318 16.642C232.71 16.866 233.134 16.978 233.592 16.978C234.096 16.978 234.52 16.8613 234.866 16.628C235.211 16.3947 235.491 16.096 235.706 15.732L236.798 16.292C236.648 16.6373 236.415 16.9547 236.098 17.244C235.79 17.524 235.421 17.748 234.992 17.916C234.572 18.084 234.1 18.168 233.578 18.168ZM242.289 18.168C241.561 18.168 240.903 18 240.315 17.664C239.727 17.3187 239.261 16.8473 238.915 16.25C238.57 15.6527 238.397 14.976 238.397 14.22C238.397 13.464 238.565 12.792 238.901 12.204C239.247 11.616 239.713 11.1493 240.301 10.804C240.889 10.4587 241.552 10.286 242.289 10.286C243.017 10.286 243.675 10.4587 244.263 10.804C244.851 11.14 245.313 11.602 245.649 12.19C245.995 12.778 246.167 13.4547 246.167 14.22C246.167 14.9853 245.99 15.6667 245.635 16.264C245.281 16.852 244.809 17.3187 244.221 17.664C243.643 18 242.999 18.168 242.289 18.168ZM242.289 16.908C242.756 16.908 243.176 16.7913 243.549 16.558C243.932 16.3247 244.231 16.0027 244.445 15.592C244.669 15.1813 244.781 14.724 244.781 14.22C244.781 13.7067 244.669 13.254 244.445 12.862C244.231 12.4607 243.932 12.1433 243.549 11.91C243.176 11.6673 242.756 11.546 242.289 11.546C241.813 11.546 241.384 11.6673 241.001 11.91C240.628 12.1433 240.329 12.4607 240.105 12.862C239.881 13.254 239.769 13.7067 239.769 14.22C239.769 14.724 239.881 15.1813 240.105 15.592C240.329 16.0027 240.628 16.3247 241.001 16.558C241.384 16.7913 241.813 16.908 242.289 16.908ZM247.865 20.8V10.454H249.139V12.078L248.971 11.756C249.251 11.308 249.634 10.9533 250.119 10.692C250.605 10.4213 251.16 10.286 251.785 10.286C252.495 10.286 253.129 10.4587 253.689 10.804C254.259 11.1493 254.707 11.6207 255.033 12.218C255.36 12.806 255.523 13.478 255.523 14.234C255.523 14.9713 255.36 15.6387 255.033 16.236C254.707 16.8333 254.259 17.3047 253.689 17.65C253.129 17.9953 252.49 18.168 251.771 18.168C251.165 18.168 250.609 18.0327 250.105 17.762C249.611 17.4913 249.228 17.1087 248.957 16.614L249.167 16.39V20.8H247.865ZM251.673 16.908C252.149 16.908 252.574 16.7913 252.947 16.558C253.321 16.3247 253.61 16.0073 253.815 15.606C254.03 15.1953 254.137 14.738 254.137 14.234C254.137 13.7113 254.03 13.254 253.815 12.862C253.61 12.4607 253.321 12.1433 252.947 11.91C252.574 11.6673 252.149 11.546 251.673 11.546C251.197 11.546 250.768 11.6627 250.385 11.896C250.012 12.1293 249.713 12.4513 249.489 12.862C249.275 13.2633 249.167 13.7207 249.167 14.234C249.167 14.738 249.275 15.1953 249.489 15.606C249.713 16.0073 250.012 16.3247 250.385 16.558C250.768 16.7913 251.197 16.908 251.673 16.908ZM257.231 18V7.402H258.533V18H257.231ZM264.025 18.168C263.297 18.168 262.648 17.9953 262.079 17.65C261.51 17.3047 261.062 16.8333 260.735 16.236C260.408 15.6293 260.245 14.9527 260.245 14.206C260.245 13.45 260.404 12.778 260.721 12.19C261.048 11.602 261.486 11.14 262.037 10.804C262.597 10.4587 263.222 10.286 263.913 10.286C264.473 10.286 264.968 10.3887 265.397 10.594C265.836 10.79 266.204 11.0607 266.503 11.406C266.811 11.742 267.044 12.1293 267.203 12.568C267.371 12.9973 267.455 13.4453 267.455 13.912C267.455 14.0147 267.446 14.1313 267.427 14.262C267.418 14.3833 267.404 14.5 267.385 14.612H261.197V13.492H266.629L266.013 13.996C266.097 13.5107 266.05 13.0767 265.873 12.694C265.696 12.3113 265.434 12.008 265.089 11.784C264.744 11.56 264.352 11.448 263.913 11.448C263.474 11.448 263.073 11.56 262.709 11.784C262.345 12.008 262.06 12.33 261.855 12.75C261.659 13.1607 261.58 13.6507 261.617 14.22C261.58 14.7707 261.664 15.256 261.869 15.676C262.084 16.0867 262.382 16.4087 262.765 16.642C263.157 16.866 263.582 16.978 264.039 16.978C264.543 16.978 264.968 16.8613 265.313 16.628C265.658 16.3947 265.938 16.096 266.153 15.732L267.245 16.292C267.096 16.6373 266.862 16.9547 266.545 17.244C266.237 17.524 265.868 17.748 265.439 17.916C265.019 18.084 264.548 18.168 264.025 18.168Z" fill="#90A3BF"/>
</svg>
