<svg width="269" height="24" viewBox="0 0 269 24" fill="none" xmlns="http://www.w3.org/2000/svg">
<path d="M22.34 9.33L20.34 8.33C19.97 8.15 19.51 8.29 19.33 8.66C19.14 9.04 19.29 9.49 19.66 9.67L21.25 10.46V15.25L17.5 15.26V5C17.5 3 16.16 2 14.5 2H6.5C4.84 2 3.5 3 3.5 5V21.25H2C1.59 21.25 1.25 21.59 1.25 22C1.25 22.41 1.59 22.75 2 22.75H19C19.41 22.75 19.75 22.41 19.75 22C19.75 21.59 19.41 21.25 19 21.25H17.5V16.76L22 16.75C22.42 16.75 22.75 16.41 22.75 16V10C22.75 9.72 22.59 9.46 22.34 9.33ZM6 6.89C6 5.5 6.85 5 7.89 5H13.12C14.15 5 15 5.5 15 6.89V8.12C15 9.5 14.15 10 13.11 10H7.89C6.85 10 6 9.5 6 8.11V6.89ZM6.5 12.25H9.5C9.91 12.25 10.25 12.59 10.25 13C10.25 13.41 9.91 13.75 9.5 13.75H6.5C6.09 13.75 5.75 13.41 5.75 13C5.75 12.59 6.09 12.25 6.5 12.25Z" fill="#90A3BF"/>
<path d="M33.792 18L37.39 13.31L37.642 13.338C37.502 13.5247 37.348 13.674 37.18 13.786C37.012 13.8887 36.8253 13.9633 36.62 14.01C36.424 14.0567 36.2093 14.08 35.976 14.08C35.36 14.08 34.8047 13.94 34.31 13.66C33.8247 13.3707 33.4373 12.9787 33.148 12.484C32.868 11.98 32.728 11.406 32.728 10.762C32.728 10.118 32.8773 9.544 33.176 9.04C33.4747 8.536 33.8853 8.13933 34.408 7.85C34.9307 7.55133 35.5187 7.402 36.172 7.402C36.844 7.402 37.4367 7.55133 37.95 7.85C38.4727 8.13933 38.8833 8.54533 39.182 9.068C39.4807 9.58133 39.63 10.174 39.63 10.846C39.63 11.21 39.588 11.5693 39.504 11.924C39.42 12.2787 39.2847 12.638 39.098 13.002C38.9207 13.366 38.6827 13.744 38.384 14.136L35.444 18H33.792ZM36.172 12.876C36.5733 12.876 36.928 12.7873 37.236 12.61C37.5533 12.4233 37.8007 12.1713 37.978 11.854C38.1553 11.5273 38.244 11.1633 38.244 10.762C38.244 10.342 38.1507 9.97333 37.964 9.656C37.7867 9.33867 37.544 9.08667 37.236 8.9C36.928 8.71333 36.5733 8.62 36.172 8.62C35.78 8.62 35.43 8.71333 35.122 8.9C34.814 9.08667 34.5667 9.33867 34.38 9.656C34.2027 9.97333 34.114 10.342 34.114 10.762C34.114 11.1633 34.2027 11.5273 34.38 11.854C34.5573 12.1713 34.8 12.4233 35.108 12.61C35.4253 12.7873 35.78 12.876 36.172 12.876ZM45.4629 18.168C44.6322 18.168 43.9042 17.944 43.2789 17.496C42.6629 17.0387 42.1822 16.4087 41.8369 15.606C41.4915 14.794 41.3189 13.8513 41.3189 12.778C41.3189 11.7047 41.4915 10.7667 41.8369 9.964C42.1822 9.152 42.6629 8.522 43.2789 8.074C43.8949 7.626 44.6182 7.402 45.4489 7.402C46.2795 7.402 47.0029 7.626 47.6189 8.074C48.2349 8.522 48.7155 9.152 49.0609 9.964C49.4155 10.7667 49.5929 11.7047 49.5929 12.778C49.5929 13.8513 49.4202 14.794 49.0749 15.606C48.7295 16.418 48.2442 17.048 47.6189 17.496C47.0029 17.944 46.2842 18.168 45.4629 18.168ZM45.4629 16.894C46.0229 16.894 46.5082 16.726 46.9189 16.39C47.3295 16.0447 47.6469 15.564 47.8709 14.948C48.1042 14.332 48.2209 13.6087 48.2209 12.778C48.2209 11.9473 48.1042 11.224 47.8709 10.608C47.6469 9.992 47.3249 9.516 46.9049 9.18C46.4942 8.844 46.0089 8.676 45.4489 8.676C44.8889 8.676 44.4035 8.844 43.9929 9.18C43.5822 9.516 43.2602 9.992 43.0269 10.608C42.8029 11.224 42.6909 11.9473 42.6909 12.778C42.6909 13.5993 42.8029 14.318 43.0269 14.934C43.2602 15.55 43.5822 16.0307 43.9929 16.376C44.4129 16.7213 44.9029 16.894 45.4629 16.894ZM51.6737 18V7.57H53.0457V16.74H57.6237V18H51.6737Z" fill="#90A3BF"/>
<path d="M89 2C83.48 2 79 6.48 79 12C79 17.52 83.48 22 89 22C94.52 22 99 17.52 99 12C99 6.48 94.53 2 89 2Z" fill="#90A3BF"/>
<rect x="81" y="4" width="16" height="16" rx="8" fill="white"/>
<path d="M89 6C85.688 6 83 8.688 83 12C83 15.312 85.688 18 89 18C92.312 18 95 15.312 95 12C95 8.688 92.318 6 89 6Z" fill="#90A3BF"/>
<rect x="85" y="8" width="8" height="8" rx="4" fill="white"/>
<rect x="88" y="17" width="2" height="4" fill="#90A3BF"/>
<rect x="94" y="11" width="4" height="2" fill="#90A3BF"/>
<rect x="80" y="11" width="4" height="2" fill="#90A3BF"/>
<path d="M110.162 18V7.57H111.422L115.328 13.128H114.684L118.562 7.57H119.822V18H118.436V9.306L118.926 9.46L115.048 14.92H114.936L111.1 9.46L111.534 9.306V18H110.162ZM124.197 18.168C123.702 18.168 123.263 18.0793 122.881 17.902C122.507 17.7153 122.213 17.4633 121.999 17.146C121.784 16.8193 121.677 16.446 121.677 16.026C121.677 15.6247 121.761 15.2653 121.929 14.948C122.106 14.6213 122.377 14.346 122.741 14.122C123.114 13.898 123.581 13.7393 124.141 13.646L126.941 13.184V14.276L124.435 14.696C123.949 14.78 123.595 14.934 123.371 15.158C123.156 15.382 123.049 15.6573 123.049 15.984C123.049 16.292 123.17 16.5487 123.413 16.754C123.665 16.9593 123.977 17.062 124.351 17.062C124.827 17.062 125.237 16.964 125.583 16.768C125.937 16.5627 126.213 16.2873 126.409 15.942C126.614 15.5967 126.717 15.214 126.717 14.794V12.876C126.717 12.4653 126.563 12.134 126.255 11.882C125.956 11.6207 125.559 11.49 125.065 11.49C124.635 11.49 124.253 11.602 123.917 11.826C123.59 12.0407 123.347 12.33 123.189 12.694L122.055 12.106C122.195 11.7607 122.419 11.4527 122.727 11.182C123.035 10.902 123.394 10.6827 123.805 10.524C124.215 10.3653 124.645 10.286 125.093 10.286C125.671 10.286 126.18 10.398 126.619 10.622C127.057 10.8367 127.398 11.14 127.641 11.532C127.893 11.9147 128.019 12.3627 128.019 12.876V18H126.745V16.572L126.983 16.656C126.824 16.9547 126.609 17.216 126.339 17.44C126.068 17.664 125.751 17.8413 125.387 17.972C125.023 18.1027 124.626 18.168 124.197 18.168ZM130.037 18V10.454H131.311V11.924L131.101 11.798C131.288 11.322 131.587 10.9533 131.997 10.692C132.417 10.4213 132.907 10.286 133.467 10.286C134.009 10.286 134.489 10.4073 134.909 10.65C135.339 10.8927 135.675 11.2287 135.917 11.658C136.169 12.0873 136.295 12.5727 136.295 13.114V18H134.979V13.534C134.979 13.114 134.905 12.7593 134.755 12.47C134.606 12.1807 134.391 11.9567 134.111 11.798C133.841 11.63 133.528 11.546 133.173 11.546C132.819 11.546 132.501 11.63 132.221 11.798C131.951 11.9567 131.736 12.1853 131.577 12.484C131.419 12.7733 131.339 13.1233 131.339 13.534V18H130.037ZM140.832 18.168C140.291 18.168 139.801 18.042 139.362 17.79C138.933 17.538 138.597 17.188 138.354 16.74C138.121 16.2827 138.004 15.76 138.004 15.172V10.454H139.306V15.032C139.306 15.4053 139.381 15.732 139.53 16.012C139.689 16.292 139.904 16.5113 140.174 16.67C140.454 16.8287 140.772 16.908 141.126 16.908C141.481 16.908 141.794 16.8287 142.064 16.67C142.344 16.5113 142.559 16.2827 142.708 15.984C142.867 15.6853 142.946 15.3307 142.946 14.92V10.454H144.262V18H142.988V16.53L143.198 16.656C143.021 17.132 142.718 17.5053 142.288 17.776C141.868 18.0373 141.383 18.168 140.832 18.168ZM148.491 18.168C147.997 18.168 147.558 18.0793 147.175 17.902C146.802 17.7153 146.508 17.4633 146.293 17.146C146.079 16.8193 145.971 16.446 145.971 16.026C145.971 15.6247 146.055 15.2653 146.223 14.948C146.401 14.6213 146.671 14.346 147.035 14.122C147.409 13.898 147.875 13.7393 148.435 13.646L151.235 13.184V14.276L148.729 14.696C148.244 14.78 147.889 14.934 147.665 15.158C147.451 15.382 147.343 15.6573 147.343 15.984C147.343 16.292 147.465 16.5487 147.707 16.754C147.959 16.9593 148.272 17.062 148.645 17.062C149.121 17.062 149.532 16.964 149.877 16.768C150.232 16.5627 150.507 16.2873 150.703 15.942C150.909 15.5967 151.011 15.214 151.011 14.794V12.876C151.011 12.4653 150.857 12.134 150.549 11.882C150.251 11.6207 149.854 11.49 149.359 11.49C148.93 11.49 148.547 11.602 148.211 11.826C147.885 12.0407 147.642 12.33 147.483 12.694L146.349 12.106C146.489 11.7607 146.713 11.4527 147.021 11.182C147.329 10.902 147.689 10.6827 148.099 10.524C148.51 10.3653 148.939 10.286 149.387 10.286C149.966 10.286 150.475 10.398 150.913 10.622C151.352 10.8367 151.693 11.14 151.935 11.532C152.187 11.9147 152.313 12.3627 152.313 12.876V18H151.039V16.572L151.277 16.656C151.119 16.9547 150.904 17.216 150.633 17.44C150.363 17.664 150.045 17.8413 149.681 17.972C149.317 18.1027 148.921 18.168 148.491 18.168ZM154.332 18V7.402H155.634V18H154.332Z" fill="#90A3BF"/>
<path d="M187 2C184.38 2 182.25 4.13 182.25 6.75C182.25 9.32 184.26 11.4 186.88 11.49C186.96 11.48 187.04 11.48 187.1 11.49C187.12 11.49 187.13 11.49 187.15 11.49C187.16 11.49 187.16 11.49 187.17 11.49C189.73 11.4 191.74 9.32 191.75 6.75C191.75 4.13 189.62 2 187 2Z" fill="#90A3BF"/>
<path d="M192.08 14.1499C189.29 12.2899 184.74 12.2899 181.93 14.1499C180.66 14.9999 179.96 16.1499 179.96 17.3799C179.96 18.6099 180.66 19.7499 181.92 20.5899C183.32 21.5299 185.16 21.9999 187 21.9999C188.84 21.9999 190.68 21.5299 192.08 20.5899C193.34 19.7399 194.04 18.5999 194.04 17.3599C194.03 16.1299 193.34 14.9899 192.08 14.1499Z" fill="#90A3BF"/>
<path d="M197.99 7.3401C198.15 9.2801 196.77 10.9801 194.86 11.2101C194.85 11.2101 194.85 11.2101 194.84 11.2101H194.81C194.75 11.2101 194.69 11.2101 194.64 11.2301C193.67 11.2801 192.78 10.9701 192.11 10.4001C193.14 9.4801 193.73 8.1001 193.61 6.6001C193.54 5.7901 193.26 5.0501 192.84 4.4201C193.22 4.2301 193.66 4.1101 194.11 4.0701C196.07 3.9001 197.82 5.3601 197.99 7.3401Z" fill="#90A3BF"/>
<path d="M199.99 16.5904C199.91 17.5604 199.29 18.4004 198.25 18.9704C197.25 19.5204 195.99 19.7804 194.74 19.7504C195.46 19.1004 195.88 18.2904 195.96 17.4304C196.06 16.1904 195.47 15.0004 194.29 14.0504C193.62 13.5204 192.84 13.1004 191.99 12.7904C194.2 12.1504 196.98 12.5804 198.69 13.9604C199.61 14.7004 200.08 15.6304 199.99 16.5904Z" fill="#90A3BF"/>
<path d="M209.756 18V17.048L212.64 13.926C213.209 13.3193 213.662 12.82 213.998 12.428C214.343 12.036 214.595 11.686 214.754 11.378C214.913 11.07 214.992 10.7433 214.992 10.398C214.992 9.82867 214.824 9.39 214.488 9.082C214.152 8.774 213.709 8.62 213.158 8.62C212.598 8.62 212.122 8.78333 211.73 9.11C211.338 9.42733 211.067 9.88 210.918 10.468L209.672 10.146C209.793 9.586 210.017 9.10067 210.344 8.69C210.671 8.27933 211.077 7.962 211.562 7.738C212.047 7.514 212.579 7.402 213.158 7.402C213.793 7.402 214.348 7.528 214.824 7.78C215.309 8.02267 215.687 8.36333 215.958 8.802C216.238 9.24067 216.378 9.74933 216.378 10.328C216.378 10.7107 216.299 11.084 216.14 11.448C215.981 11.812 215.748 12.1993 215.44 12.61C215.132 13.0113 214.731 13.478 214.236 14.01L211.66 16.81H216.602V18H209.756ZM220.963 18V7.57H224.645C225.335 7.57 225.942 7.70067 226.465 7.962C226.987 8.22333 227.393 8.59667 227.683 9.082C227.981 9.56733 228.131 10.1367 228.131 10.79C228.131 11.4433 227.981 12.0127 227.683 12.498C227.393 12.974 226.987 13.3473 226.465 13.618C225.951 13.8793 225.345 14.01 224.645 14.01H222.335V18H220.963ZM222.335 12.75H224.687C225.107 12.75 225.471 12.6707 225.779 12.512C226.087 12.3533 226.325 12.1247 226.493 11.826C226.661 11.5273 226.745 11.182 226.745 10.79C226.745 10.3887 226.661 10.0433 226.493 9.754C226.325 9.45533 226.087 9.22667 225.779 9.068C225.471 8.90933 225.107 8.83 224.687 8.83H222.335V12.75ZM233.031 18.168C232.303 18.168 231.654 17.9953 231.085 17.65C230.515 17.3047 230.067 16.8333 229.741 16.236C229.414 15.6293 229.251 14.9527 229.251 14.206C229.251 13.45 229.409 12.778 229.727 12.19C230.053 11.602 230.492 11.14 231.043 10.804C231.603 10.4587 232.228 10.286 232.919 10.286C233.479 10.286 233.973 10.3887 234.403 10.594C234.841 10.79 235.21 11.0607 235.509 11.406C235.817 11.742 236.05 12.1293 236.209 12.568C236.377 12.9973 236.461 13.4453 236.461 13.912C236.461 14.0147 236.451 14.1313 236.433 14.262C236.423 14.3833 236.409 14.5 236.391 14.612H230.203V13.492H235.635L235.019 13.996C235.103 13.5107 235.056 13.0767 234.879 12.694C234.701 12.3113 234.44 12.008 234.095 11.784C233.749 11.56 233.357 11.448 232.919 11.448C232.48 11.448 232.079 11.56 231.715 11.784C231.351 12.008 231.066 12.33 230.861 12.75C230.665 13.1607 230.585 13.6507 230.623 14.22C230.585 14.7707 230.669 15.256 230.875 15.676C231.089 16.0867 231.388 16.4087 231.771 16.642C232.163 16.866 232.587 16.978 233.045 16.978C233.549 16.978 233.973 16.8613 234.319 16.628C234.664 16.3947 234.944 16.096 235.159 15.732L236.251 16.292C236.101 16.6373 235.868 16.9547 235.551 17.244C235.243 17.524 234.874 17.748 234.445 17.916C234.025 18.084 233.553 18.168 233.031 18.168ZM241.742 18.168C241.014 18.168 240.356 18 239.768 17.664C239.18 17.3187 238.714 16.8473 238.368 16.25C238.023 15.6527 237.85 14.976 237.85 14.22C237.85 13.464 238.018 12.792 238.354 12.204C238.7 11.616 239.166 11.1493 239.754 10.804C240.342 10.4587 241.005 10.286 241.742 10.286C242.47 10.286 243.128 10.4587 243.716 10.804C244.304 11.14 244.766 11.602 245.102 12.19C245.448 12.778 245.62 13.4547 245.62 14.22C245.62 14.9853 245.443 15.6667 245.088 16.264C244.734 16.852 244.262 17.3187 243.674 17.664C243.096 18 242.452 18.168 241.742 18.168ZM241.742 16.908C242.209 16.908 242.629 16.7913 243.002 16.558C243.385 16.3247 243.684 16.0027 243.898 15.592C244.122 15.1813 244.234 14.724 244.234 14.22C244.234 13.7067 244.122 13.254 243.898 12.862C243.684 12.4607 243.385 12.1433 243.002 11.91C242.629 11.6673 242.209 11.546 241.742 11.546C241.266 11.546 240.837 11.6673 240.454 11.91C240.081 12.1433 239.782 12.4607 239.558 12.862C239.334 13.254 239.222 13.7067 239.222 14.22C239.222 14.724 239.334 15.1813 239.558 15.592C239.782 16.0027 240.081 16.3247 240.454 16.558C240.837 16.7913 241.266 16.908 241.742 16.908ZM247.319 20.8V10.454H248.593V12.078L248.425 11.756C248.705 11.308 249.087 10.9533 249.573 10.692C250.058 10.4213 250.613 10.286 251.239 10.286C251.948 10.286 252.583 10.4587 253.143 10.804C253.712 11.1493 254.16 11.6207 254.487 12.218C254.813 12.806 254.977 13.478 254.977 14.234C254.977 14.9713 254.813 15.6387 254.487 16.236C254.16 16.8333 253.712 17.3047 253.143 17.65C252.583 17.9953 251.943 18.168 251.225 18.168C250.618 18.168 250.063 18.0327 249.559 17.762C249.064 17.4913 248.681 17.1087 248.411 16.614L248.621 16.39V20.8H247.319ZM251.127 16.908C251.603 16.908 252.027 16.7913 252.401 16.558C252.774 16.3247 253.063 16.0073 253.269 15.606C253.483 15.1953 253.591 14.738 253.591 14.234C253.591 13.7113 253.483 13.254 253.269 12.862C253.063 12.4607 252.774 12.1433 252.401 11.91C252.027 11.6673 251.603 11.546 251.127 11.546C250.651 11.546 250.221 11.6627 249.839 11.896C249.465 12.1293 249.167 12.4513 248.943 12.862C248.728 13.2633 248.621 13.7207 248.621 14.234C248.621 14.738 248.728 15.1953 248.943 15.606C249.167 16.0073 249.465 16.3247 249.839 16.558C250.221 16.7913 250.651 16.908 251.127 16.908ZM256.684 18V7.402H257.986V18H256.684ZM263.478 18.168C262.75 18.168 262.101 17.9953 261.532 17.65C260.963 17.3047 260.515 16.8333 260.188 16.236C259.861 15.6293 259.698 14.9527 259.698 14.206C259.698 13.45 259.857 12.778 260.174 12.19C260.501 11.602 260.939 11.14 261.49 10.804C262.05 10.4587 262.675 10.286 263.366 10.286C263.926 10.286 264.421 10.3887 264.85 10.594C265.289 10.79 265.657 11.0607 265.956 11.406C266.264 11.742 266.497 12.1293 266.656 12.568C266.824 12.9973 266.908 13.4453 266.908 13.912C266.908 14.0147 266.899 14.1313 266.88 14.262C266.871 14.3833 266.857 14.5 266.838 14.612H260.65V13.492H266.082L265.466 13.996C265.55 13.5107 265.503 13.0767 265.326 12.694C265.149 12.3113 264.887 12.008 264.542 11.784C264.197 11.56 263.805 11.448 263.366 11.448C262.927 11.448 262.526 11.56 262.162 11.784C261.798 12.008 261.513 12.33 261.308 12.75C261.112 13.1607 261.033 13.6507 261.07 14.22C261.033 14.7707 261.117 15.256 261.322 15.676C261.537 16.0867 261.835 16.4087 262.218 16.642C262.61 16.866 263.035 16.978 263.492 16.978C263.996 16.978 264.421 16.8613 264.766 16.628C265.111 16.3947 265.391 16.096 265.606 15.732L266.698 16.292C266.549 16.6373 266.315 16.9547 265.998 17.244C265.69 17.524 265.321 17.748 264.892 17.916C264.472 18.084 264.001 18.168 263.478 18.168Z" fill="#90A3BF"/>
</svg>
